<?xml version="1.0" standalone="no"?>
<!DOCTYPE svg PUBLIC "-//W3C//DTD SVG 20010904//EN"
 "http://www.w3.org/TR/2001/REC-SVG-20010904/DTD/svg10.dtd">
<svg version="1.0" xmlns="http://www.w3.org/2000/svg"
 width="325.000000pt" height="325.000000pt" viewBox="0 0 325.000000 325.000000"
 preserveAspectRatio="xMidYMid meet">

<g transform="translate(0.000000,325.000000) scale(0.100000,-0.100000)"
fill="#000000" stroke="none">
<path d="M910 3243 c-276 -47 -429 -123 -610 -299 -129 -126 -195 -223 -242
-356 -59 -168 -59 -161 -56 -998 l3 -765 28 -90 c57 -183 136 -314 266 -438
138 -132 279 -210 480 -266 l96 -26 750 0 750 0 96 26 c201 56 342 134 480
266 130 124 209 255 266 438 l28 90 0 800 0 800 -28 90 c-57 183 -136 314
-266 438 -139 132 -280 210 -480 265 l-96 27 -720 1 c-396 1 -731 0 -745 -3z
m1000 -810 c0 -8 -376 -1649 -391 -1705 l-10 -38 -94 0 c-84 0 -95 2 -95 18 0
10 85 389 189 842 104 454 192 840 196 858 l7 32 99 0 c54 0 99 -3 99 -7z
m-730 -232 c0 -139 -3 -191 -12 -198 -7 -6 -127 -73 -265 -149 -139 -76 -253
-140 -253 -143 0 -3 120 -71 265 -150 l265 -144 0 -194 c0 -106 -3 -193 -7
-193 -5 1 -219 117 -478 258 l-470 258 -3 166 -2 166 472 259 c260 143 476
258 481 256 4 -2 7 -89 7 -192z m1380 -61 c223 -122 422 -233 443 -246 l37
-25 -2 -161 -3 -162 -465 -254 c-256 -139 -471 -256 -478 -259 -10 -4 -12 35
-10 192 l3 197 258 142 c141 77 256 146 255 151 -1 6 -116 73 -257 151 l-256
140 -3 184 c-1 102 0 190 2 197 4 10 13 8 38 -6 18 -10 215 -119 438 -241z"/>
</g>
</svg>
